<?xml version="1.0" standalone="no"?>
<!DOCTYPE svg PUBLIC "-//W3C//DTD SVG 20010904//EN"
 "http://www.w3.org/TR/2001/REC-SVG-20010904/DTD/svg10.dtd">
<svg version="1.0" xmlns="http://www.w3.org/2000/svg"
 width="402.000000pt" height="418.000000pt" viewBox="0 0 402.000000 418.000000"
 preserveAspectRatio="xMidYMid meet">

<g transform="translate(0.000000,418.000000) scale(0.100000,-0.100000)"
fill="#000000" stroke="none">
<path d="M1820 3989 c-361 -42 -693 -187 -962 -423 -214 -187 -391 -448 -486
-717 -60 -170 -84 -307 -90 -501 -2 -97 -1 -211 3 -252 l7 -76 52 0 52 0 -7
53 c-13 90 -10 347 6 447 90 589 512 1094 1075 1285 485 166 1011 97 1434
-187 466 -314 739 -858 713 -1423 -4 -71 -9 -140 -13 -152 -6 -22 -4 -23 48
-23 l55 0 6 68 c50 528 -134 1045 -501 1409 -366 363 -894 549 -1392 492z"/>
<path d="M1642 3565 c-43 -19 -59 -58 -108 -255 -21 -85 -42 -160 -46 -166 -4
-6 -58 -14 -119 -18 -175 -10 -269 -53 -269 -122 0 -66 108 -122 265 -139 120
-12 145 -33 75 -61 -81 -33 -111 -124 -70 -210 14 -28 36 -54 56 -66 19 -11
34 -27 34 -36 1 -10 9 -41 19 -70 l18 -53 -36 -23 c-20 -13 -66 -38 -101 -56
-121 -61 -465 -264 -499 -296 -28 -25 -33 -35 -27 -57 3 -15 12 -27 19 -27 7
0 60 31 118 69 172 115 448 267 494 273 17 3 21 -4 25 -47 7 -59 19 -84 59
-118 35 -29 111 -60 135 -55 12 2 3 17 -35 58 -55 60 -103 133 -97 150 2 6 33
-11 68 -38 36 -26 100 -67 142 -91 66 -36 82 -50 108 -95 16 -29 30 -57 30
-62 0 -5 -57 -9 -127 -9 -71 0 -154 -6 -185 -13 -53 -12 -58 -16 -79 -59 -20
-42 -21 -54 -15 -177 17 -312 22 -367 37 -377 22 -14 56 -11 63 7 3 8 -1 97
-9 197 -19 234 -19 311 -1 326 21 18 163 30 411 37 257 7 290 13 313 56 9 17
26 42 38 57 36 46 101 155 114 193 8 21 20 40 27 42 15 6 309 -116 441 -183
42 -21 118 -64 167 -95 95 -60 106 -64 124 -42 9 11 2 22 -36 53 -108 89 -234
157 -458 248 -211 86 -265 113 -265 133 0 9 5 46 10 81 8 56 13 68 45 93 19
17 42 43 50 58 19 37 19 103 0 140 -18 34 -75 80 -99 80 -12 0 -16 7 -14 23 3
20 10 22 88 28 78 6 176 34 248 71 32 16 54 62 46 93 -13 51 -134 91 -305 101
l-108 7 -11 56 c-24 117 -84 304 -107 332 -30 35 -83 53 -131 44 -36 -6 -65
-25 -127 -79 -59 -52 -96 -47 -170 20 -89 81 -157 102 -233 69z m150 -100
c141 -114 177 -120 282 -47 112 77 114 78 133 66 32 -19 116 -224 99 -241 -4
-4 -158 -8 -341 -8 -258 0 -337 3 -347 13 -10 10 -8 29 10 99 37 139 45 153
86 153 25 0 47 -10 78 -35z m536 -314 c6 -1 12 -9 12 -20 0 -24 -65 -31 -297
-31 -149 0 -462 16 -471 24 -1 2 0 9 3 17 4 12 67 14 373 12 202 -1 373 -2
380 -2z m-750 -116 c136 -20 492 -29 642 -16 238 22 317 24 397 11 124 -19
142 -38 70 -70 -57 -26 -136 -37 -377 -56 -235 -18 -433 -14 -735 17 -269 26
-405 63 -368 100 28 28 227 36 371 14z m211 -215 c133 -13 295 -13 445 1 65 5
120 8 123 5 3 -2 7 -23 10 -45 7 -48 25 -66 77 -74 44 -7 56 -19 56 -60 0 -33
-40 -77 -69 -77 -23 0 -27 -13 -35 -102 -2 -31 -12 -73 -22 -94 -28 -59 -127
-157 -196 -195 -61 -33 -66 -34 -178 -34 -107 1 -119 3 -181 32 -152 71 -235
163 -269 299 -17 68 -24 82 -64 119 -35 32 -46 49 -46 71 0 41 16 54 67 54 46
0 44 -3 58 83 l6 38 57 -6 c31 -3 104 -10 161 -15z m612 -601 c-6 -45 -43
-103 -110 -170 -63 -63 -70 -68 -140 -83 -40 -9 -76 -14 -79 -11 -3 3 1 20 10
38 15 31 40 51 179 140 31 20 72 54 90 76 37 44 56 48 50 10z m-363 -156 c-42
-89 -53 -98 -67 -60 -26 69 -26 67 24 67 26 0 45 -3 43 -7z"/>
<path d="M1716 2744 c-21 -20 -20 -37 2 -57 23 -21 56 -22 76 -1 19 18 20 28
6 55 -13 23 -62 26 -84 3z"/>
<path d="M2132 2748 c-29 -29 -7 -78 34 -78 37 0 54 11 54 35 0 45 -58 73 -88
43z"/>
<path d="M1885 2520 c-45 -45 -66 -60 -88 -60 -27 0 -60 26 -82 65 -9 15 -15
16 -32 6 -51 -27 -36 -91 29 -134 66 -43 143 -32 225 30 l33 25 32 -27 c90
-76 202 -72 269 8 23 27 24 70 3 91 -24 25 -40 19 -50 -16 -11 -39 -53 -63
-92 -53 -15 4 -48 28 -74 55 -48 50 -77 70 -100 70 -8 0 -40 -27 -73 -60z"/>
<path d="M3020 2510 c-8 -5 -12 -11 -10 -14 3 -2 14 2 24 10 22 15 10 19 -14
4z"/>
<path d="M3125 2506 c-34 -25 -18 -116 21 -116 40 0 57 66 28 108 -18 26 -24
27 -49 8z m43 -55 c-3 -38 -6 -46 -23 -46 -16 0 -21 8 -23 38 -4 42 12 69 34
60 11 -4 14 -18 12 -52z"/>
<path d="M3230 2510 c-8 -5 -12 -11 -10 -14 3 -2 14 2 24 10 22 15 10 19 -14
4z"/>
<path d="M597 2503 c-4 -3 -7 -35 -7 -70 l0 -63 53 2 52 1 -45 6 c-40 5 -45 9
-45 31 0 21 6 26 40 31 l40 6 -44 2 c-43 1 -43 1 -37 31 6 31 4 35 -7 23z"/>
<path d="M3066 2497 c4 -12 -5 -30 -30 -57 -20 -22 -36 -42 -36 -45 0 -3 19
-4 43 -3 36 1 38 2 10 5 -39 5 -42 15 -9 37 29 19 42 54 26 70 -8 8 -10 7 -4
-7z"/>
<path d="M3276 2494 c3 -13 -7 -30 -30 -53 -20 -19 -36 -39 -36 -43 0 -4 19
-7 43 -6 36 1 38 2 10 5 -39 5 -42 17 -8 39 28 18 42 51 27 66 -8 8 -9 5 -6
-8z"/>
<path d="M3321 2485 c-1 -27 2 -31 27 -30 22 0 27 -4 27 -25 0 -21 -5 -25 -27
-25 -14 1 -24 -3 -22 -7 10 -16 53 -8 64 11 14 28 2 51 -31 58 -18 3 -29 13
-32 27 -3 15 -5 12 -6 -9z"/>
<path d="M822 2428 c2 -35 8 -53 18 -56 12 -4 13 -2 3 9 -6 8 -10 34 -9 57 2
23 -1 42 -6 42 -5 0 -8 -23 -6 -52z"/>
<path d="M720 2450 c0 -13 9 -22 26 -26 14 -4 29 -16 34 -28 l9 -21 0 22 c1
15 -8 24 -30 32 -22 7 -29 15 -25 26 3 8 1 15 -4 15 -6 0 -10 -9 -10 -20z"/>
<path d="M728 2378 c6 -6 18 -8 28 -6 14 3 12 5 -9 10 -19 3 -25 2 -19 -4z"/>
<path d="M455 1808 c-121 -60 -222 -112 -225 -115 -2 -2 17 -46 43 -99 l47
-94 28 17 c15 9 28 18 29 18 2 1 -11 27 -28 59 -17 31 -30 59 -28 60 2 2 56
29 119 61 63 31 152 77 197 102 l83 44 -15 30 c-9 16 -19 29 -23 28 -4 0 -106
-50 -227 -111z"/>
<path d="M3266 1821 l-25 -49 197 -148 c108 -81 202 -152 209 -156 8 -6 17 0
27 19 14 27 14 29 -22 59 l-36 31 19 42 c10 23 22 44 26 46 4 3 23 -2 43 -10
48 -20 50 -20 68 18 l16 33 -227 76 c-124 42 -236 79 -248 83 -19 5 -26 -1
-47 -44z m206 -88 c57 -20 107 -39 111 -43 5 -4 1 -22 -8 -39 l-16 -32 -52 37
c-118 85 -154 114 -145 114 4 0 53 -16 110 -37z"/>
<path d="M1706 1758 c-25 -35 -20 -65 14 -83 41 -21 67 -19 85 9 19 28 10 55
-27 80 -31 22 -54 20 -72 -6z"/>
<path d="M2314 1766 c-15 -12 -17 -18 -8 -33 16 -26 56 -28 71 -4 10 16 10 23
-3 36 -19 19 -35 19 -60 1z"/>
<path d="M2026 1751 c-23 -26 -17 -52 16 -71 21 -11 32 -12 45 -4 25 15 28 52
7 75 -22 24 -46 24 -68 0z"/>
<path d="M580 1579 c-118 -61 -219 -115 -225 -120 -6 -6 -1 -17 13 -32 l23
-22 39 22 40 21 31 -45 32 -45 -32 -30 c-36 -34 -37 -38 -12 -69 l20 -24 185
184 185 185 -31 43 c-17 24 -36 43 -42 43 -6 0 -108 -50 -226 -111z m150 -21
c-19 -17 -61 -56 -93 -87 l-58 -56 -19 25 c-11 14 -20 28 -20 32 0 7 200 117
215 118 6 0 -6 -14 -25 -32z"/>
<path d="M3194 1670 c-12 -5 -41 -32 -65 -62 -24 -29 -87 -96 -139 -148 -52
-52 -94 -100 -92 -106 1 -6 -16 -14 -39 -18 -54 -9 -109 -61 -109 -104 0 -99
71 -158 211 -177 92 -13 144 -71 104 -115 -24 -27 -39 -25 -67 9 -24 28 -26
28 -51 13 -35 -21 -34 -31 6 -70 59 -58 123 -51 182 20 32 37 30 76 -5 134
-27 43 -78 69 -165 86 -110 20 -165 72 -126 120 16 20 22 21 45 10 14 -6 26
-16 26 -22 0 -15 22 -12 48 8 l23 18 -20 25 -20 24 27 28 27 29 157 -164 156
-163 27 26 26 26 -102 109 c-57 60 -125 133 -153 162 l-50 52 30 31 31 31 178
-136 c98 -75 178 -135 179 -134 0 2 11 15 24 29 l24 27 -84 63 c-46 34 -85 64
-87 66 -9 7 43 53 59 53 10 0 48 -22 85 -50 37 -27 71 -50 75 -50 9 0 55 49
49 53 -109 85 -166 118 -198 115 -30 -2 -35 0 -38 22 -5 36 -28 65 -75 98 -50
34 -85 44 -114 32z m94 -118 c47 -44 49 -51 23 -83 l-18 -22 -62 47 c-33 26
-61 50 -61 53 0 16 35 43 55 43 12 0 40 -17 63 -38z"/>
<path d="M1747 1482 c-29 -32 -21 -69 19 -90 18 -10 27 -8 48 9 32 25 34 62 4
83 -29 21 -51 20 -71 -2z"/>
<path d="M2242 1488 c-29 -29 1 -88 44 -88 47 0 60 57 19 84 -29 19 -47 20
-63 4z"/>
<path d="M824 1293 c-82 -103 -153 -193 -157 -201 -8 -13 17 -52 33 -52 4 0
46 48 93 108 46 59 95 116 107 127 25 22 20 13 -93 -189 l-49 -88 25 -26 26
-25 86 79 c116 106 175 157 175 150 0 -3 -46 -62 -101 -132 -105 -131 -109
-141 -66 -168 12 -8 20 -5 35 14 11 14 83 104 160 200 140 175 140 175 121
196 -11 12 -30 27 -44 34 -23 12 -30 7 -150 -105 -70 -64 -129 -115 -132 -112
-3 3 34 74 81 158 l87 153 -28 23 c-59 49 -48 56 -209 -144z"/>
<path d="M1170 1068 c-69 -94 -138 -188 -153 -209 l-28 -38 30 -15 c29 -15 30
-15 59 21 l30 37 41 -19 c23 -10 44 -22 46 -26 3 -4 -2 -25 -9 -47 -16 -45 -9
-59 32 -64 20 -3 29 17 102 237 44 132 80 241 80 242 0 3 -98 53 -102 53 -2 0
-59 -77 -128 -172z m93 -55 c-20 -60 -39 -112 -43 -116 -4 -5 -22 -1 -39 8
l-32 16 22 32 c43 62 121 167 124 167 2 0 -12 -48 -32 -107z"/>
<path d="M2587 1192 c-80 -53 -77 -91 22 -295 88 -182 99 -193 177 -184 66 7
109 51 108 110 -1 55 -123 320 -165 360 -36 33 -99 37 -142 9z m149 -182 c83
-169 92 -196 72 -217 -10 -10 -25 -13 -40 -10 -19 5 -37 35 -91 152 -69 151
-75 173 -55 193 31 31 52 9 114 -118z"/>
<path d="M1467 1120 c-34 -27 -61 -100 -54 -146 3 -20 22 -68 43 -106 42 -83
47 -129 16 -160 -18 -19 -25 -20 -47 -10 -24 11 -26 17 -23 54 3 38 1 42 -25
51 -16 5 -31 6 -34 3 -3 -3 -8 -28 -11 -56 -6 -60 13 -95 63 -116 71 -30 133
-6 161 62 24 56 17 104 -26 193 -43 89 -49 124 -24 159 29 42 74 22 74 -35 0
-27 5 -34 28 -40 15 -4 33 -6 40 -5 8 2 12 -10 12 -33 0 -42 18 -80 71 -150
44 -59 54 -91 40 -128 -8 -21 -17 -27 -40 -27 -35 0 -56 29 -47 65 5 20 1 24
-25 30 -17 4 -33 4 -37 0 -4 -4 -7 -29 -7 -56 0 -66 32 -100 104 -107 59 -5
92 11 117 60 23 45 15 126 -19 175 -14 21 -40 58 -56 82 -35 50 -39 89 -13
121 15 18 21 20 45 11 22 -9 27 -17 27 -46 0 -33 2 -35 35 -35 33 0 35 2 35
34 0 79 -40 116 -125 116 -39 0 -52 -5 -75 -30 -35 -37 -40 -37 -40 -2 0 70
-123 119 -183 72z"/>
<path d="M2465 1133 c-11 -3 -23 -8 -27 -11 -4 -4 9 -65 28 -137 18 -71 34
-134 34 -140 0 -14 -37 44 -99 152 -29 51 -56 95 -60 97 -6 4 -78 -12 -89 -20
-3 -2 98 -391 119 -461 11 -33 30 -41 58 -24 12 8 7 36 -28 172 -23 89 -39
164 -37 166 2 3 37 -51 76 -119 115 -195 111 -189 129 -184 64 18 63 -4 6 214
-29 108 -58 221 -66 250 -7 28 -15 51 -18 51 -3 -1 -15 -3 -26 -6z"/>
<path d="M1966 1038 c-8 -34 -66 -460 -66 -480 0 -13 8 -18 30 -18 31 0 35 8
42 70 3 23 7 25 58 25 47 0 55 -3 58 -20 9 -62 11 -65 48 -65 l35 0 -6 43 c-4
23 -23 136 -44 252 l-37 210 -57 3 c-52 3 -57 1 -61 -20z m83 -220 l18 -108
-39 0 c-24 0 -38 5 -38 13 0 9 13 101 31 222 2 15 8 -11 28 -127z"/>
<path d="M1600 345 c-11 -13 -10 -14 4 -9 9 3 16 10 16 15 0 13 -6 11 -20 -6z"/>
<path d="M830 241 c0 -69 15 -99 22 -44 2 22 9 28 32 30 49 4 58 10 54 45 -3
32 -4 33 -55 36 l-53 3 0 -70z m86 38 c9 -16 -21 -43 -40 -36 -9 4 -16 16 -16
27 0 15 7 20 24 20 14 0 28 -5 32 -11z"/>
<path d="M970 239 c0 -93 22 -90 27 4 3 55 1 67 -12 67 -12 0 -15 -14 -15 -71z"/>
<path d="M1035 299 c4 -5 17 -9 28 -8 39 3 39 0 -2 -52 -23 -29 -41 -56 -41
-60 0 -5 25 -9 55 -9 30 0 55 5 55 10 0 6 -16 10 -35 10 -19 0 -35 4 -35 9 0
4 16 29 35 54 19 25 35 48 35 51 0 3 -23 6 -51 6 -33 0 -48 -4 -44 -11z"/>
<path d="M1162 304 c3 -3 19 -7 34 -9 16 -2 30 -4 32 -4 2 -1 -15 -24 -37 -53
-22 -29 -37 -56 -35 -60 7 -12 104 -10 104 2 0 6 -16 10 -35 10 -19 0 -35 3
-35 6 0 4 16 28 35 54 19 26 35 50 35 54 0 3 -23 6 -52 6 -28 0 -49 -3 -46 -6z"/>
<path d="M1290 240 l0 -70 55 0 c65 0 74 17 13 22 -35 2 -43 7 -43 23 0 16 8
21 40 24 l40 5 -40 5 c-31 5 -40 10 -40 26 0 16 9 21 45 26 l45 6 -57 1 -58 2
0 -70z"/>
<path d="M1430 240 c0 -68 15 -98 22 -42 4 40 38 41 61 2 10 -16 22 -30 28
-30 13 0 11 12 -7 39 -16 22 -16 24 0 33 21 12 21 54 0 62 -9 3 -36 6 -60 6
l-44 0 0 -70z m90 30 c0 -16 -7 -20 -30 -20 -23 0 -30 4 -30 20 0 16 7 20 30
20 23 0 30 -4 30 -20z"/>
<path d="M1590 240 c0 -40 4 -70 10 -70 6 0 10 30 10 70 0 40 -4 70 -10 70 -6
0 -10 -30 -10 -70z"/>
<path d="M1666 253 c-10 -32 -21 -64 -23 -70 -3 -7 0 -13 5 -13 6 0 14 9 17
20 5 15 15 20 40 20 24 0 34 -5 38 -20 3 -11 10 -20 16 -20 6 0 1 27 -14 66
-14 37 -25 68 -25 70 0 2 -8 4 -18 4 -14 0 -23 -15 -36 -57z m54 -10 c0 -7 -7
-13 -15 -13 -15 0 -21 31 -8 43 8 8 23 -12 23 -30z"/>
<path d="M1893 293 c-3 -10 -15 -40 -25 -67 -10 -27 -17 -51 -14 -53 8 -8 26
7 26 23 0 24 67 19 75 -6 3 -11 11 -20 16 -20 12 0 11 6 -14 75 -23 62 -51 83
-64 48z m37 -44 c0 -10 -7 -19 -15 -19 -16 0 -19 9 -9 34 8 20 24 11 24 -15z"/>
<path d="M2010 240 c0 -68 15 -98 22 -42 4 34 43 44 53 13 7 -22 33 -47 41
-38 3 3 -2 17 -12 32 -17 25 -17 28 -1 37 20 11 22 39 5 56 -7 7 -34 12 -60
12 l-48 0 0 -70z m90 30 c0 -16 -7 -20 -30 -20 -23 0 -30 4 -30 20 0 16 7 20
30 20 23 0 30 -4 30 -20z"/>
<path d="M2170 301 c23 -6 25 -12 28 -69 2 -34 7 -62 12 -62 5 0 10 28 12 62
3 57 5 63 28 69 16 4 1 7 -40 7 -41 0 -56 -3 -40 -7z"/>
<path d="M2290 240 l0 -70 55 0 c30 0 55 5 55 10 0 6 -18 10 -40 10 -36 0 -40
3 -40 25 0 23 4 25 43 27 l42 1 -45 6 c-25 3 -44 9 -42 14 1 4 2 13 2 21 0 10
14 16 43 19 36 3 34 4 -15 5 l-58 2 0 -70z"/>
<path d="M2440 295 c-19 -23 -5 -43 40 -56 28 -9 40 -17 38 -28 -4 -20 -44
-27 -64 -10 -8 6 -18 9 -22 5 -11 -12 29 -36 58 -36 32 0 50 17 50 46 0 17 -9
25 -37 35 -39 12 -55 27 -47 41 8 12 48 10 62 -4 13 -13 27 -5 17 11 -10 16
-81 13 -95 -4z"/>
<path d="M2615 301 c-6 -10 -45 -120 -45 -128 0 -12 20 1 25 17 8 25 75 30 75
6 0 -15 18 -31 26 -24 2 3 -7 34 -20 69 -22 60 -46 83 -61 60z m35 -58 c0 -7
-7 -13 -15 -13 -16 0 -19 9 -9 35 5 13 8 14 15 3 5 -7 9 -19 9 -25z"/>
<path d="M2730 240 c0 -81 18 -95 22 -17 l3 52 32 -52 c47 -75 63 -71 63 17 0
40 -4 70 -10 70 -5 0 -10 -22 -10 -50 0 -27 -3 -50 -7 -50 -5 0 -21 23 -36 50
-41 72 -57 67 -57 -20z"/>
<path d="M2902 248 c-12 -35 -22 -66 -22 -70 0 -16 19 -7 25 12 5 14 15 20 37
20 21 0 31 -6 35 -20 3 -11 12 -20 19 -20 11 0 8 15 -11 66 -14 37 -25 68 -25
70 0 2 -8 4 -18 4 -13 0 -24 -17 -40 -62z m48 23 c0 -5 3 -16 6 -25 4 -12 0
-16 -16 -16 -16 0 -20 4 -16 16 3 9 6 20 6 25 0 5 5 9 10 9 6 0 10 -4 10 -9z"/>
<path d="M3034 243 l1 -68 53 -3 c31 -2 52 1 52 7 0 6 -18 11 -40 11 l-40 0 0
60 c0 44 -4 60 -14 60 -10 0 -13 -16 -12 -67z"/>
<path d="M703 223 c9 -2 23 -2 30 0 6 3 -1 5 -18 5 -16 0 -22 -2 -12 -5z"/>
<path d="M3233 223 c9 -2 23 -2 30 0 6 3 -1 5 -18 5 -16 0 -22 -2 -12 -5z"/>
</g>
</svg>
